  0
SECTION
  2
HEADER
  9
$ACADVER
  1
AC1012
  9
$DWGCODEPAGE
  3
ansi_1252
  9
$INSBASE
 10
0.0
 20
0.0
 30
0.0
  9
$EXTMIN
 10
1.000000000000000E+20
 20
1.000000000000000E+20
 30
1.000000000000000E+20
  9
$EXTMAX
 10
-1.000000000000000E+20
 20
-1.000000000000000E+20
 30
-1.000000000000000E+20
  9
$LIMMIN
 10
0.0
 20
0.0
  9
$LIMMAX
 10
12.0
 20
9.0
  9
$ORTHOMODE
 70
     0
  9
$REGENMODE
 70
     1
  9
$FILLMODE
 70
     1
  9
$QTEXTMODE
 70
     0
  9
$MIRRTEXT
 70
     1
  9
$DRAGMODE
 70
     2
  9
$LTSCALE
 40
1.0
  9
$OSMODE
 70
    37
  9
$ATTMODE
 70
     1
  9
$TEXTSIZE
 40
0.2
  9
$TRACEWID
 40
0.05
  9
$TEXTSTYLE
  7
STANDARD
  9
$CLAYER
  8
0
  9
$CELTYPE
  6
BYLAYER
  9
$CECOLOR
 62
   256
  9
$CELTSCALE
 40
1.0
  9
$DELOBJ
 70
     1
  9
$DISPSILH
 70
     0
  9
$DIMSCALE
 40
1.0
  9
$DIMASZ
 40
0.18
  9
$DIMEXO
 40
0.0625
  9
$DIMDLI
 40
0.38
  9
$DIMRND
 40
0.0
  9
$DIMDLE
 40
0.0
  9
$DIMEXE
 40
0.18
  9
$DIMTP
 40
0.0
  9
$DIMTM
 40
0.0
  9
$DIMTXT
 40
0.18
  9
$DIMCEN
 40
0.09
  9
$DIMTSZ
 40
0.0
  9
$DIMTOL
 70
     0
  9
$DIMLIM
 70
     0
  9
$DIMTIH
 70
     1
  9
$DIMTOH
 70
     1
  9
$DIMSE1
 70
     0
  9
$DIMSE2
 70
     0
  9
$DIMTAD
 70
     0
  9
$DIMZIN
 70
     0
  9
$DIMBLK
  1

  9
$DIMASO
 70
     1
  9
$DIMSHO
 70
     1
  9
$DIMPOST
  1

  9
$DIMAPOST
  1

  9
$DIMALT
 70
     0
  9
$DIMALTD
 70
     2
  9
$DIMALTF
 40
25.4
  9
$DIMLFAC
 40
1.0
  9
$DIMTOFL
 70
     0
  9
$DIMTVP
 40
0.0
  9
$DIMTIX
 70
     0
  9
$DIMSOXD
 70
     0
  9
$DIMSAH
 70
     0
  9
$DIMBLK1
  1

  9
$DIMBLK2
  1

  9
$DIMSTYLE
  2
STANDARD
  9
$DIMCLRD
 70
     0
  9
$DIMCLRE
 70
     0
  9
$DIMCLRT
 70
     0
  9
$DIMTFAC
 40
1.0
  9
$DIMGAP
 40
0.09
  9
$DIMJUST
 70
     0
  9
$DIMSD1
 70
     0
  9
$DIMSD2
 70
     0
  9
$DIMTOLJ
 70
     1
  9
$DIMTZIN
 70
     0
  9
$DIMALTZ
 70
     0
  9
$DIMALTTZ
 70
     0
  9
$DIMFIT
 70
     3
  9
$DIMUPT
 70
     0
  9
$DIMUNIT
 70
     2
  9
$DIMDEC
 70
     4
  9
$DIMTDEC
 70
     4
  9
$DIMALTU
 70
     2
  9
$DIMALTTD
 70
     2
  9
$DIMTXSTY
  7
STANDARD
  9
$DIMAUNIT
 70
     0
  9
$LUNITS
 70
     2
  9
$LUPREC
 70
     4
  9
$SKETCHINC
 40
0.1
  9
$FILLETRAD
 40
0.5
  9
$AUNITS
 70
     0
  9
$AUPREC
 70
     0
  9
$MENU
  1
.
  9
$ELEVATION
 40
0.0
  9
$PELEVATION
 40
0.0
  9
$THICKNESS
 40
0.0
  9
$LIMCHECK
 70
     0
  9
$CHAMFERA
 40
0.5
  9
$CHAMFERB
 40
0.5
  9
$CHAMFERC
 40
1.0
  9
$CHAMFERD
 40
0.0
  9
$SKPOLY
 70
     0
  9
$TDCREATE
 40
2455997.681801956
  9
$TDUPDATE
 40
2455997.681801968
  9
$TDINDWG
 40
0.0000000116
  9
$TDUSRTIMER
 40
0.0000000116
  9
$USRTIMER
 70
     1
  9
$ANGBASE
 50
0.0
  9
$ANGDIR
 70
     0
  9
$PDMODE
 70
     0
  9
$PDSIZE
 40
0.0
  9
$PLINEWID
 40
0.0
  9
$COORDS
 70
     1
  9
$SPLFRAME
 70
     0
  9
$SPLINETYPE
 70
     6
  9
$SPLINESEGS
 70
     8
  9
$ATTDIA
 70
     0
  9
$ATTREQ
 70
     1
  9
$HANDLING
 70
     1
  9
$HANDSEED
  5
91
  9
$SURFTAB1
 70
     6
  9
$SURFTAB2
 70
     6
  9
$SURFTYPE
 70
     6
  9
$SURFU
 70
     6
  9
$SURFV
 70
     6
  9
$UCSNAME
  2

  9
$UCSORG
 10
0.0
 20
0.0
 30
0.0
  9
$UCSXDIR
 10
1.0
 20
0.0
 30
0.0
  9
$UCSYDIR
 10
0.0
 20
1.0
 30
0.0
  9
$PUCSNAME
  2

  9
$PUCSORG
 10
0.0
 20
0.0
 30
0.0
  9
$PUCSXDIR
 10
1.0
 20
0.0
 30
0.0
  9
$PUCSYDIR
 10
0.0
 20
1.0
 30
0.0
  9
$USERI1
 70
     0
  9
$USERI2
 70
     0
  9
$USERI3
 70
     0
  9
$USERI4
 70
     0
  9
$USERI5
 70
     0
  9
$USERR1
 40
0.0
  9
$USERR2
 40
0.0
  9
$USERR3
 40
0.0
  9
$USERR4
 40
0.0
  9
$USERR5
 40
0.0
  9
$WORLDVIEW
 70
     1
  9
$SHADEDGE
 70
     3
  9
$SHADEDIF
 70
    70
  9
$TILEMODE
 70
     1
  9
$MAXACTVP
 70
    64
  9
$PINSBASE
 10
0.0
 20
0.0
 30
0.0
  9
$PLIMCHECK
 70
     0
  9
$PEXTMIN
 10
1.000000000000000E+20
 20
1.000000000000000E+20
 30
1.000000000000000E+20
  9
$PEXTMAX
 10
-1.000000000000000E+20
 20
-1.000000000000000E+20
 30
-1.000000000000000E+20
  9
$PLIMMIN
 10
0.0
 20
0.0
  9
$PLIMMAX
 10
12.0
 20
9.0
  9
$UNITMODE
 70
     0
  9
$VISRETAIN
 70
     1
  9
$PLINEGEN
 70
     0
  9
$PSLTSCALE
 70
     1
  9
$TREEDEPTH
 70
  3020
  9
$PICKSTYLE
 70
     1
  9
$CMLSTYLE
  2
STANDARD
  9
$CMLJUST
 70
     0
  9
$CMLSCALE
 40
1.0
  9
$SAVEIMAGES
 70
     1
  0
ENDSEC
  0
SECTION
  2
CLASSES
  0
CLASS
  1
ACDBDICTIONARYWDFLT
  2
AcDbDictionaryWithDefault
  3
ObjectDBX Classes
 90
    32768
280
     0
281
     0
  0
CLASS
  1
VISUALSTYLE
  2
AcDbVisualStyle
  3
ObjectDBX Classes
 90
     4095
280
     0
281
     0
  0
CLASS
  1
IMAGEDEF
  2
AcDbRasterImageDef
  3
ISM
 90
    32768
280
     0
281
     0
  0
CLASS
  1
RASTERVARIABLES
  2
AcDbRasterVariables
  3
ISM
 90
    32768
280
     0
281
     0
  0
CLASS
  1
IMAGE
  2
AcDbRasterImage
  3
ISM
 90
    32895
280
     0
281
     1
  0
CLASS
  1
IMAGEDEF_REACTOR
  2
AcDbRasterImageDefReactor
  3
ISM
 90
    32769
280
     0
281
     0
  0
CLASS
  1
XRECORD
  2
AcDbXrecord
  3
AutoCAD 2000
 90
    32768
280
     0
281
     0
  0
CLASS
  1
LWPOLYLINE
  2
AcDbPolyline
  3
AutoCAD 2000
 90
    32768
280
     0
281
     1
  0
CLASS
  1
HATCH
  2
AcDbHatch
  3
AutoCAD 2000
 90
    32768
280
     0
281
     1
  0
CLASS
  1
ACDBPLACEHOLDER
  2
AcDbPlaceHolder
  3
ObjectDBX Classes
 90
        0
280
     0
281
     0
  0
CLASS
  1
LAYOUT
  2
AcDbLayout
  3
ObjectDBX Classes
 90
        0
280
     0
281
     0
  0
ENDSEC
  0
SECTION
  2
TABLES
  0
TABLE
  2
VPORT
  5
8
330
0
100
AcDbSymbolTable
 70
     1
  0
VPORT
  5
29
330
8
100
AcDbSymbolTableRecord
100
AcDbViewportTableRecord
  2
*ACTIVE
 70
     0
 10
0.0
 20
0.0
 11
1.0
 21
1.0
 12
0.0
 22
0.0
 13
0.0
 23
0.0
 14
0.5
 24
0.5
 15
0.5
 25
0.5
 16
0.0
 26
0.0
 36
1.0
 17
0.8000028481072909
 27
-0.8000028481072909
 37
0.0
 40
1.600005696214582
 41
1.0
 42
50.0
 43
0.0
 44
0.0
 50
0.0
 51
0.0
 71
     0
 72
   100
 73
     1
 74
     3
 75
     0
 76
     0
 77
     0
 78
     0
  0
ENDTAB
  0
TABLE
  2
LTYPE
  5
5
330
0
100
AcDbSymbolTable
 70
     1
  0
LTYPE
  5
14
330
5
100
AcDbSymbolTableRecord
100
AcDbLinetypeTableRecord
  2
BYBLOCK
 70
     0
  3

 72
    65
 73
     0
 40
0.0
  0
LTYPE
  5
15
330
5
100
AcDbSymbolTableRecord
100
AcDbLinetypeTableRecord
  2
BYLAYER
 70
     0
  3

 72
    65
 73
     0
 40
0.0
  0
LTYPE
  5
16
330
5
100
AcDbSymbolTableRecord
100
AcDbLinetypeTableRecord
  2
CONTINUOUS
 70
     0
  3
Solid line
 72
    65
 73
     0
 40
0.0
  0
ENDTAB
  0
TABLE
  2
LAYER
  5
2
330
0
100
AcDbSymbolTable
 70
     4
  0
LAYER
  5
10
330
2
100
AcDbSymbolTableRecord
100
AcDbLayerTableRecord
  2
0
 70
     0
 62
     7
  6
CONTINUOUS
  0
LAYER
  5
3B
330
2
100
AcDbSymbolTableRecord
100
AcDbLayerTableRecord
  2
TEMPLATE
 70
     1
 62
     7
  6
CONTINUOUS
  0
LAYER
  5
41
330
2
100
AcDbSymbolTableRecord
100
AcDbLayerTableRecord
  2
BACKGROUND
 70
     1
 62
     7
  6
CONTINUOUS
  0
LAYER
  5
4A
330
2
100
AcDbSymbolTableRecord
100
AcDbLayerTableRecord
  2
SIGN
 70
     0
 62
     7
  6
CONTINUOUS
  0
ENDTAB
  0
TABLE
  2
STYLE
  5
3
330
0
100
AcDbSymbolTable
 70
     1
  0
STYLE
  5
11
330
3
100
AcDbSymbolTableRecord
100
AcDbTextStyleTableRecord
  2
STANDARD
 70
     0
 40
0.0
 41
1.0
 50
0.0
 71
     0
 42
0.2
  3
txt
  4

  0
ENDTAB
  0
TABLE
  2
VIEW
  5
6
330
0
100
AcDbSymbolTable
 70
     0
  0
ENDTAB
  0
TABLE
  2
UCS
  5
7
330
0
100
AcDbSymbolTable
 70
     0
  0
ENDTAB
  0
TABLE
  2
APPID
  5
9
330
0
100
AcDbSymbolTable
 70
     1
  0
APPID
  5
12
330
9
100
AcDbSymbolTableRecord
100
AcDbRegAppTableRecord
  2
ACAD
 70
     0
  0
ENDTAB
  0
TABLE
  2
DIMSTYLE
  5
A
330
0
100
AcDbSymbolTable
 70
     1
  0
DIMSTYLE
105
27
330
A
100
AcDbSymbolTableRecord
100
AcDbDimStyleTableRecord
  2
STANDARD
 70
     0
  3

  4

  5

  6

  7

 40
1.0
 41
0.18
 42
0.0625
 43
0.38
 44
0.18
 45
0.0
 46
0.0
 47
0.0
 48
0.0
140
0.18
141
0.09
142
0.0
143
25.4
144
1.0
145
0.0
146
1.0
147
0.09
 71
     0
 72
     0
 73
     1
 74
     1
 75
     0
 76
     0
 77
     0
 78
     0
170
     0
171
     2
172
     0
173
     0
174
     0
175
     0
176
     0
177
     0
178
     0
270
     2
271
     4
272
     4
273
     2
274
     2
340
11
275
     0
280
     0
281
     0
282
     0
283
     1
284
     0
285
     0
286
     0
287
     3
288
     0
  0
ENDTAB
  0
TABLE
  2
BLOCK_RECORD
  5
1
330
0
100
AcDbSymbolTable
 70
     3
  0
BLOCK_RECORD
  5
1F
330
1
100
AcDbSymbolTableRecord
100
AcDbBlockTableRecord
  2
*MODEL_SPACE
  0
BLOCK_RECORD
  5
1B
330
1
100
AcDbSymbolTableRecord
100
AcDbBlockTableRecord
  2
*PAPER_SPACE
  0
BLOCK_RECORD
  5
62
330
1
100
AcDbSymbolTableRecord
100
AcDbBlockTableRecord
  2
*U1
  0
BLOCK_RECORD
  5
67
330
1
100
AcDbSymbolTableRecord
100
AcDbBlockTableRecord
  2
*U2
  0
ENDTAB
  0
ENDSEC
  0
SECTION
  2
BLOCKS
  0
BLOCK
  5
20
330
1F
100
AcDbEntity
  8
0
100
AcDbBlockBegin
  2
*MODEL_SPACE
 70
     0
 71
     0
 10
0.0
 20
0.0
 30
0.0
  3
*MODEL_SPACE
  1

  0
ENDBLK
  5
21
330
1F
100
AcDbEntity
  8
0
100
AcDbBlockEnd
  0
BLOCK
  5
1C
330
1B
100
AcDbEntity
 67
     1
  8
0
100
AcDbBlockBegin
  2
*PAPER_SPACE
 70
     0
 71
     0
 10
0.0
 20
0.0
 30
0.0
  3
*PAPER_SPACE
  1

  0
ENDBLK
  5
1D
330
1B
100
AcDbEntity
 67
     1
  8
0
100
AcDbBlockEnd
  0
BLOCK
  5
65
330
62
100
AcDbEntity
  8
0
100
AcDbBlockBegin
  2
*U1
 70
     1
 71
     0
 10
0.0
 20
0.0
 30
0.0
  3
*U1
  1

  0
SOLID
  5
63
330
62
100
AcDbEntity
  8
BACKGROUND
 62
     2
100
AcDbTrace
 10
0.0
 20
-1.600005696214582
 30
0.0
 11
0.0
 21
0.0
 31
0.0
 12
-1.600005696214582
 22
-1.600005696214582
 32
0.0
 13
-1.600005696214582
 23
-1.600005696214582
 33
0.0
210
0.0
220
0.0
230
-1.0
  0
SOLID
  5
64
330
62
100
AcDbEntity
  8
BACKGROUND
 62
     2
100
AcDbTrace
 10
-1.600005696214582
 20
-1.600005696214582
 30
0.0
 11
0.0
 21
0.0
 31
0.0
 12
-1.600005696214582
 22
0.0
 32
0.0
 13
-1.600005696214582
 23
0.0
 33
0.0
210
0.0
220
0.0
230
-1.0
  0
ENDBLK
  5
66
330
62
100
AcDbEntity
  8
0
100
AcDbBlockEnd
  0
BLOCK
  5
8F
330
67
100
AcDbEntity
  8
0
100
AcDbBlockBegin
  2
*U2
 70
     1
 71
     0
 10
0.0
 20
0.0
 30
0.0
  3
*U2
  1

  0
SOLID
  5
68
330
67
100
AcDbEntity
  8
SIGN
 62
   250
100
AcDbTrace
 10
-0.7162181259060149
 20
-0.9681739468166892
 30
0.0
 11
-0.5947957355283844
 21
-1.027155218927239
 31
0.0
 12
-0.7162181259060149
 22
-0.5472773014450389
 32
0.0
 13
-0.7162181259060149
 23
-0.5472773014450389
 33
0.0
210
0.0
220
0.0
230
-1.0
  0
SOLID
  5
69
330
67
100
AcDbEntity
  8
SIGN
 62
   250
100
AcDbTrace
 10
-0.7326340058932304
 20
-1.098355653276301
 30
0.0
 11
-0.7162181259060149
 21
-1.050134005813855
 31
0.0
 12
-0.7326340058932304
 22
-1.057209408744804
 32
0.0
 13
-0.7326340058932304
 23
-1.057209408744804
 33
0.0
210
0.0
220
0.0
230
-1.0
  0
SOLID
  5
6A
330
67
100
AcDbEntity
  8
SIGN
 62
   250
100
AcDbTrace
 10
-0.7162181259060149
 20
-0.9681739468166892
 30
0.0
 11
-0.7162181259060149
 21
-0.5472773014450389
 31
0.0
 12
-0.7326340058932304
 22
-0.9601998863369965
 32
0.0
 13
-0.7326340058932304
 23
-0.9601998863369965
 33
0.0
210
0.0
220
0.0
230
-1.0
  0
SOLID
  5
6B
330
67
100
AcDbEntity
  8
SIGN
 62
   250
100
AcDbTrace
 10
0.7326340058932304
 20
-0.9601998863369965
 30
0.0
 11
0.7162181259060149
 21
-0.5472773014450389
 31
0.0
 12
0.7326340058932304
 22
-0.4823994953221085
 32
0.0
 13
0.7326340058932304
 23
-0.4823994953221085
 33
0.0
  0
SOLID
  5
6C
330
67
100
AcDbEntity
  8
SIGN
 62
   250
100
AcDbTrace
 10
0.7326340058932304
 20
-1.098355653276301
 30
0.0
 11
0.7326340058932304
 21
-1.057209408744804
 31
0.0
 12
0.7523227265914332
 22
-1.156191270327272
 32
0.0
 13
0.7523227265914332
 23
-1.156191270327272
 33
0.0
  0
SOLID
  5
6D
330
67
100
AcDbEntity
  8
SIGN
 62
   250
100
AcDbTrace
 10
-0.7523227265914332
 20
-1.156191270327272
 30
0.0
 11
-0.7326340058932304
 21
-1.057209408744804
 31
0.0
 12
-0.7523227265914332
 22
-1.065695437653591
 32
0.0
 13
-0.7523227265914332
 23
-1.065695437653591
 33
0.0
210
0.0
220
0.0
230
-1.0
  0
SOLID
  5
6E
330
67
100
AcDbEntity
  8
SIGN
 62
   250
100
AcDbTrace
 10
-0.7326340058932304
 20
-0.9601998863369965
 30
0.0
 11
-0.7326340058932304
 21
-0.4823994953221084
 31
0.0
 12
-0.7523227265914332
 22
-0.9506360341562108
 32
0.0
 13
-0.7523227265914332
 23
-0.9506360341562108
 33
0.0
210
0.0
220
0.0
230
-1.0
  0
SOLID
  5
6F
330
67
100
AcDbEntity
  8
SIGN
 62
   250
100
AcDbTrace
 10
-0.7523227265914332
 20
-0.9506360341562108
 30
0.0
 11
-0.7326340058932304
 21
-0.4823994953221084
 31
0.0
 12
-0.7523227265914332
 22
-0.4987052397203388
 32
0.0
 13
-0.7523227265914332
 23
-0.4987052397203388
 33
0.0
210
0.0
220
0.0
230
-1.0
  0
SOLID
  5
70
330
67
100
AcDbEntity
  8
SIGN
 62
   250
100
AcDbTrace
 10
0.7523227265914332
 20
-1.156191270327272
 30
0.0
 11
0.7523227265914332
 21
-1.065695437653591
 31
0.0
 12
0.7999856226298646
 22
-1.296201027440164
 32
0.0
 13
0.7999856226298646
 23
-1.296201027440164
 33
0.0
  0
SOLID
  5
71
330
67
100
AcDbEntity
  8
SIGN
 62
   250
100
AcDbTrace
 10
-0.7999856226298646
 20
-1.296201027440164
 30
0.0
 11
-0.7523227265914332
 21
-1.065695437653591
 31
0.0
 12
-0.7999856226298646
 22
-1.086238606499274
 32
0.0
 13
-0.7999856226298646
 23
-1.086238606499274
 33
0.0
210
0.0
220
0.0
230
-1.0
  0
SOLID
  5
72
330
67
100
AcDbEntity
  8
SIGN
 62
   250
100
AcDbTrace
 10
-0.7523227265914332
 20
-0.9506360341562108
 30
0.0
 11
-0.7523227265914332
 21
-0.8269607202793708
 31
0.0
 12
-0.7999856226298646
 22
-0.9274836465934515
 32
0.0
 13
-0.7999856226298646
 23
-0.9274836465934515
 33
0.0
210
0.0
220
0.0
230
-1.0
  0
SOLID
  5
73
330
67
100
AcDbEntity
  8
SIGN
 62
   250
100
AcDbTrace
 10
0.7999856226298646
 20
-0.9274836465934515
 30
0.0
 11
0.7523227265914332
 21
-0.8269607202793708
 31
0.0
 12
0.7999856226298646
 22
-0.8046244791604011
 32
0.0
 13
0.7999856226298646
 23
-0.8046244791604011
 33
0.0
  0
SOLID
  5
74
330
67
100
AcDbEntity
  8
SIGN
 62
   250
100
AcDbTrace
 10
-0.7523227265914332
 20
-0.8269607202793708
 30
0.0
 11
-0.7523227265914332
 21
-0.4987052397203388
 31
0.0
 12
-0.7999856226298646
 22
-0.7270956047702765
 32
0.0
 13
-0.7999856226298646
 23
-0.7270956047702765
 33
0.0
210
0.0
220
0.0
230
-1.0
  0
SOLID
  5
75
330
67
100
AcDbEntity
  8
SIGN
 62
   250
100
AcDbTrace
 10
-0.7999856226298646
 20
-0.7270956047702765
 30
0.0
 11
-0.7523227265914332
 21
-0.4987052397203388
 31
0.0
 12
-0.7999856226298646
 22
-0.5381785509625989
 32
0.0
 13
-0.7999856226298646
 23
-0.5381785509625989
 33
0.0
210
0.0
220
0.0
230
-1.0
  0
SOLID
  5
76
330
67
100
AcDbEntity
  8
SIGN
 62
   250
100
AcDbTrace
 10
0.7999856226298646
 20
-1.296201027440164
 30
0.0
 11
0.7999856226298646
 21
-1.086238606499274
 31
0.0
 12
0.8000028481072909
 22
-1.296251627280104
 32
0.0
 13
0.8000028481072909
 23
-1.296251627280104
 33
0.0
  0
SOLID
  5
77
330
67
100
AcDbEntity
  8
SIGN
 62
   250
100
AcDbTrace
 10
0.8000028481072909
 20
-1.296251627280104
 30
0.0
 11
0.7999856226298646
 21
-1.086238606499274
 31
0.0
 12
0.8000028481072909
 22
-1.086118753949877
 32
0.0
 13
0.8000028481072909
 23
-1.086118753949877
 33
0.0
  0
SOLID
  5
78
330
67
100
AcDbEntity
  8
SIGN
 62
   250
100
AcDbTrace
 10
-0.7999856226298646
 20
-0.9274836465934515
 30
0.0
 11
-0.7999856226298646
 21
-0.8046244791604011
 31
0.0
 12
-0.8000028481072909
 22
-0.9274752792687088
 32
0.0
 13
-0.8000028481072909
 23
-0.9274752792687088
 33
0.0
210
0.0
220
0.0
230
-1.0
  0
SOLID
  5
79
330
67
100
AcDbEntity
  8
SIGN
 62
   250
100
AcDbTrace
 10
0.8000028481072909
 20
-0.9274752792687088
 30
0.0
 11
0.7999856226298646
 21
-0.8046244791604011
 31
0.0
 12
0.8000028481072909
 22
-0.8046164067928121
 32
0.0
 13
0.8000028481072909
 23
-0.8046164067928121
 33
0.0
  0
SOLID
  5
7A
330
67
100
AcDbEntity
  8
SIGN
 62
   250
100
AcDbTrace
 10
-0.7999856226298646
 20
-0.7270956047702765
 30
0.0
 11
-0.7999856226298646
 21
-0.5381785509625989
 31
0.0
 12
-0.8000028481072909
 22
-0.7270595132937641
 32
0.0
 13
-0.8000028481072909
 23
-0.7270595132937641
 33
0.0
210
0.0
220
0.0
230
-1.0
  0
SOLID
  5
7B
330
67
100
AcDbEntity
  8
SIGN
 62
   250
100
AcDbTrace
 10
-0.8000028481072909
 20
-0.7270595132937641
 30
0.0
 11
-0.7999856226298646
 21
-0.5381785509625989
 31
0.0
 12
-0.8000028481072909
 22
-0.5381928167057295
 32
0.0
 13
-0.8000028481072909
 23
-0.5381928167057295
 33
0.0
210
0.0
220
0.0
230
-1.0
  0
SOLID
  5
7C
330
67
100
AcDbEntity
  8
SIGN
 62
   250
100
AcDbTrace
 10
-0.8000028481072909
 20
-1.296251627280104
 30
0.0
 11
-0.8000028481072909
 21
-1.086118753949877
 31
0.0
 12
-0.8245147024848435
 22
-1.270150057378209
 32
0.0
 13
-0.8245147024848435
 23
-1.270150057378209
 33
0.0
210
0.0
220
0.0
230
-1.0
  0
SOLID
  5
7D
330
67
100
AcDbEntity
  8
SIGN
 62
   250
100
AcDbTrace
 10
0.8245147024848435
 20
-1.270150057378209
 30
0.0
 11
0.8000028481072909
 21
-1.086118753949877
 31
0.0
 12
0.8245147024848435
 22
-0.9155685761599966
 32
0.0
 13
0.8245147024848435
 23
-0.9155685761599966
 33
0.0
  0
SOLID
  5
7E
330
67
100
AcDbEntity
  8
SIGN
 62
   250
100
AcDbTrace
 10
-0.8000028481072909
 20
-0.9274752792687088
 30
0.0
 11
-0.8000028481072909
 21
-0.8046164067928121
 31
0.0
 12
-0.8245147024848435
 22
-0.9155685761599966
 32
0.0
 13
-0.8245147024848435
 23
-0.9155685761599966
 33
0.0
210
0.0
220
0.0
230
-1.0
  0
SOLID
  5
7F
330
67
100
AcDbEntity
  8
SIGN
 62
   250
100
AcDbTrace
 10
0.8245147024848435
 20
-0.9155685761599966
 30
0.0
 11
0.8000028481072909
 21
-0.8046164067928121
 31
0.0
 12
0.8245147024848435
 22
-0.7931294277135588
 32
0.0
 13
0.8245147024848435
 23
-0.7931294277135588
 33
0.0
  0
SOLID
  5
80
330
67
100
AcDbEntity
  8
SIGN
 62
   250
100
AcDbTrace
 10
-0.8000028481072909
 20
-0.7270595132937641
 30
0.0
 11
-0.8000028481072909
 21
-0.5381928167057295
 31
0.0
 12
-0.8245147024848435
 22
-0.6757013422169873
 32
0.0
 13
-0.8245147024848435
 23
-0.6757013422169873
 33
0.0
210
0.0
220
0.0
230
-1.0
  0
SOLID
  5
81
330
67
100
AcDbEntity
  8
SIGN
 62
   250
100
AcDbTrace
 10
-0.8245147024848435
 20
-0.6757013422169873
 30
0.0
 11
-0.8000028481072909
 21
-0.5381928167057295
 31
0.0
 12
-0.8245147024848435
 22
-0.5381928167057295
 32
0.0
 13
-0.8245147024848435
 23
-0.5381928167057295
 33
0.0
210
0.0
220
0.0
230
-1.0
  0
SOLID
  5
82
330
67
100
AcDbEntity
  8
SIGN
 62
   250
100
AcDbTrace
 10
-0.8245147024848435
 20
-1.270150057378209
 30
0.0
 11
-0.8245147024848435
 21
-0.7931294277135588
 31
0.0
 12
-0.883580864579452
 22
-1.207253161247784
 32
0.0
 13
-0.883580864579452
 23
-1.207253161247784
 33
0.0
210
0.0
220
0.0
230
-1.0
  0
SOLID
  5
83
330
67
100
AcDbEntity
  8
SIGN
 62
   250
100
AcDbTrace
 10
0.883580864579452
 20
-1.207253161247784
 30
0.0
 11
0.8245147024848435
 21
-0.7931294277135588
 31
0.0
 12
0.883580864579452
 22
-0.7654492792506217
 32
0.0
 13
0.883580864579452
 23
-0.7654492792506217
 33
0.0
  0
SOLID
  5
84
330
67
100
AcDbEntity
  8
SIGN
 62
   250
100
AcDbTrace
 10
-0.8245147024848435
 20
-0.6757013422169873
 30
0.0
 11
-0.8245147024848435
 21
-0.5381928167057295
 31
0.0
 12
-0.883580864579452
 22
-0.5519436692568553
 32
0.0
 13
-0.883580864579452
 23
-0.5519436692568553
 33
0.0
210
0.0
220
0.0
230
-1.0
  0
SOLID
  5
85
330
67
100
AcDbEntity
  8
SIGN
 62
   250
100
AcDbTrace
 10
0.883580864579452
 20
-0.5519436692568553
 30
0.0
 11
0.8245147024848435
 21
-0.5381928167057295
 31
0.0
 12
0.883580864579452
 22
-0.5381928167057295
 32
0.0
 13
0.883580864579452
 23
-0.5381928167057295
 33
0.0
  0
SOLID
  5
86
330
67
100
AcDbEntity
  8
SIGN
 62
   250
100
AcDbTrace
 10
-0.883580864579452
 20
-1.207253161247784
 30
0.0
 11
-0.883580864579452
 21
-1.109182942431038
 31
0.0
 12
-0.8901437714788529
 22
-1.200264617233292
 32
0.0
 13
-0.8901437714788529
 23
-1.200264617233292
 33
0.0
210
0.0
220
0.0
230
-1.0
  0
SOLID
  5
87
330
67
100
AcDbEntity
  8
SIGN
 62
   250
100
AcDbTrace
 10
0.8901437714788529
 20
-1.200264617233292
 30
0.0
 11
0.883580864579452
 21
-1.109182942431038
 31
0.0
 12
0.8901437714788529
 22
-1.108957249705085
 32
0.0
 13
0.8901437714788529
 23
-1.108957249705085
 33
0.0
  0
SOLID
  5
88
330
67
100
AcDbEntity
  8
SIGN
 62
   250
100
AcDbTrace
 10
-0.883580864579452
 20
-1.109182942431038
 30
0.0
 11
-0.883580864579452
 21
-0.7654492792506217
 31
0.0
 12
-0.8901437714788529
 22
-1.077469162272944
 32
0.0
 13
-0.8901437714788529
 23
-1.077469162272944
 33
0.0
210
0.0
220
0.0
230
-1.0
  0
SOLID
  5
89
330
67
100
AcDbEntity
  8
SIGN
 62
   250
100
AcDbTrace
 10
0.8901437714788529
 20
-1.077469162272944
 30
0.0
 11
0.883580864579452
 21
-0.7654492792506217
 31
0.0
 12
0.8901437714788529
 22
-0.7623737071991842
 32
0.0
 13
0.8901437714788529
 23
-0.7623737071991842
 33
0.0
  0
SOLID
  5
8A
330
67
100
AcDbEntity
  8
SIGN
 62
   250
100
AcDbTrace
 10
-0.883580864579452
 20
-0.5519436692568553
 30
0.0
 11
-0.883580864579452
 21
-0.5381928167057295
 31
0.0
 12
-0.8901437714788529
 22
-0.5381928167057295
 32
0.0
 13
-0.8901437714788529
 23
-0.5381928167057295
 33
0.0
210
0.0
220
0.0
230
-1.0
  0
SOLID
  5
8B
330
67
100
AcDbEntity
  8
SIGN
 62
   250
100
AcDbTrace
 10
-0.8901437714788529
 20
-1.200264617233292
 30
0.0
 11
-0.8901437714788529
 21
-1.108957249705085
 31
0.0
 12
-0.9623529728496895
 22
-1.123372290438675
 32
0.0
 13
-0.9623529728496895
 23
-1.123372290438675
 33
0.0
210
0.0
220
0.0
230
-1.0
  0
SOLID
  5
8C
330
67
100
AcDbEntity
  8
SIGN
 62
   250
100
AcDbTrace
 10
0.9623529728496895
 20
-1.123372290438675
 30
0.0
 11
0.8901437714788529
 21
-1.108957249705085
 31
0.0
 12
0.9623529728496895
 22
-1.106474037350251
 32
0.0
 13
0.9623529728496895
 23
-1.106474037350251
 33
0.0
  0
SOLID
  5
8D
330
67
100
AcDbEntity
  8
SIGN
 62
   250
100
AcDbTrace
 10
0.8901437714788529
 20
-1.077469162272944
 30
0.0
 11
0.8901437714788529
 21
-0.7623737071991842
 31
0.0
 12
0.9623529728496895
 22
-0.7285343422657831
 32
0.0
 13
0.9623529728496895
 23
-0.7285343422657831
 33
0.0
  0
SOLID
  5
8E
330
67
100
AcDbEntity
  8
SIGN
 62
   250
100
AcDbTrace
 10
0.9623529728496895
 20
-1.123372290438675
 30
0.0
 11
0.9623529728496895
 21
-1.106474037350251
 31
0.0
 12
0.9787516273594787
 22
-1.10591010172005
 32
0.0
 13
0.9787516273594787
 23
-1.10591010172005
 33
0.0
  0
ENDBLK
  5
90
330
67
100
AcDbEntity
  8
0
100
AcDbBlockEnd
  0
ENDSEC
  0
SECTION
  2
ENTITIES
  0
IMAGE
  5
3F
330
1F
100
AcDbEntity
  8
TEMPLATE
 92
        8
310
0800000000000000
100
AcDbRasterImage
 90
        0
 10
-0.0113860405981541
 20
-1.55690062046051
 30
0.0
 11
0.01211028134644921
 21
0.0
 31
0.0
 12
0.0
 22
0.0121102819442749
 32
0.0
 13
134.0
 23
125.0
340
3D
 70
     3
280
     0
281
    50
282
    50
283
     0
360
40
 71
     1
 91
        2
 14
-0.5
 24
-0.5
 14
133.5
 24
124.5
  0
POLYLINE
  5
42
330
1F
100
AcDbEntity
  8
BACKGROUND
100
AcDb2dPolyline
 66
     1
 10
0.0
 20
0.0
 30
0.0
  0
VERTEX
  5
43
330
42
100
AcDbEntity
  8
BACKGROUND
100
AcDbVertex
100
AcDb2dVertex
 10
1.600005696214582
 20
-1.600005696214582
 30
0.0
  0
VERTEX
  5
44
330
42
100
AcDbEntity
  8
BACKGROUND
100
AcDbVertex
100
AcDb2dVertex
 10
0.0
 20
-1.600005696214582
 30
0.0
  0
VERTEX
  5
45
330
42
100
AcDbEntity
  8
BACKGROUND
100
AcDbVertex
100
AcDb2dVertex
 10
0.0
 20
0.0
 30
0.0
  0
VERTEX
  5
46
330
42
100
AcDbEntity
  8
BACKGROUND
100
AcDbVertex
100
AcDb2dVertex
 10
1.600005696214582
 20
0.0
 30
0.0
  0
VERTEX
  5
47
330
42
100
AcDbEntity
  8
BACKGROUND
100
AcDbVertex
100
AcDb2dVertex
 10
1.600005696214582
 20
-1.600005696214582
 30
0.0
  0
SEQEND
  5
48
330
42
100
AcDbEntity
  8
BACKGROUND
  0
INSERT
  5
49
330
1F
100
AcDbEntity
  8
BACKGROUND
 62
     2
100
AcDbBlockReference
  2
*U1
 10
0.0
 20
0.0
 30
0.0
1001
ACAD
1002
{
1000
R14_HATCH_DATA
1000
49
1011
1.0
1021
0.0
1031
0.0
1011
0.0
1021
1.0
1031
0.0
1011
0.0
1021
0.0
1031
1.0
1040
0.0
1010
0.0
1020
0.0
1030
1.0
1000
SOLID
1070
     1
1070
     1
1071
        1
1071
        1
1071
        4
1070
     1
1040
1.600005696214582
1040
-1.600005696214582
1040
0.0
1040
-1.600005696214582
1070
     1
1040
0.0
1040
-1.600005696214582
1040
0.0
1040
0.0
1070
     1
1040
0.0
1040
0.0
1040
1.600005696214582
1040
0.0
1070
     1
1040
1.600005696214582
1040
0.0
1040
1.600005696214582
1040
-1.600005696214582
1071
        0
1070
     2
1070
     1
1071
        0
1002
}
  0
POLYLINE
  5
4B
330
1F
100
AcDbEntity
  8
SIGN
 62
   250
100
AcDb2dPolyline
 66
     1
 10
0.0
 20
0.0
 30
0.0
  0
VERTEX
  5
4C
330
4B
100
AcDbEntity
  8
SIGN
 62
   250
100
AcDbVertex
100
AcDb2dVertex
 10
0.0799951171675012
 20
-1.394712456248544
 30
0.0
  0
VERTEX
  5
4D
330
4B
100
AcDbEntity
  8
SIGN
 62
   250
100
AcDbVertex
100
AcDb2dVertex
 10
0.8000028481072909
 20
-0.164727240627221
 30
0.0
  0
VERTEX
  5
4E
330
4B
100
AcDbEntity
  8
SIGN
 62
   250
100
AcDbVertex
100
AcDb2dVertex
 10
1.519993353569654
 20
-1.394712456248544
 30
0.0
  0
VERTEX
  5
4F
330
4B
100
AcDbEntity
  8
SIGN
 62
   250
100
AcDbVertex
100
AcDb2dVertex
 10
0.0799951171675012
 20
-1.394712456248544
 30
0.0
  0
SEQEND
  5
50
330
4B
100
AcDbEntity
  8
SIGN
  0
POLYLINE
  5
51
330
1F
100
AcDbEntity
  8
SIGN
100
AcDb2dPolyline
 66
     1
 10
0.0
 20
0.0
 30
0.0
  0
VERTEX
  5
52
330
51
100
AcDbEntity
  8
SIGN
100
AcDbVertex
100
AcDb2dVertex
 10
0.7326340058932304
 20
-0.4823994953221084
 30
0.0
  0
VERTEX
  5
53
330
51
100
AcDbEntity
  8
SIGN
100
AcDbVertex
100
AcDb2dVertex
 10
0.8000028481072909
 20
-0.5381928167057295
 30
0.0
  0
VERTEX
  5
54
330
51
100
AcDbEntity
  8
SIGN
100
AcDbVertex
100
AcDb2dVertex
 10
0.8901437714788529
 20
-0.5381928167057295
 30
0.0
  0
VERTEX
  5
55
330
51
100
AcDbEntity
  8
SIGN
100
AcDbVertex
100
AcDb2dVertex
 10
0.7523227265914332
 20
-0.8269607202793708
 30
0.0
  0
VERTEX
  5
56
330
51
100
AcDbEntity
  8
SIGN
100
AcDbVertex
100
AcDb2dVertex
 10
0.9623529728496895
 20
-0.7285343422657831
 30
0.0
  0
VERTEX
  5
57
330
51
100
AcDbEntity
  8
SIGN
100
AcDbVertex
100
AcDb2dVertex
 10
0.883580864579452
 20
-1.109182942431038
 30
0.0
  0
VERTEX
  5
58
330
51
100
AcDbEntity
  8
SIGN
100
AcDbVertex
100
AcDb2dVertex
 10
0.9787516273594787
 20
-1.10591010172005
 30
0.0
  0
VERTEX
  5
59
330
51
100
AcDbEntity
  8
SIGN
100
AcDbVertex
100
AcDb2dVertex
 10
0.8000028481072909
 20
-1.296251627280104
 30
0.0
  0
VERTEX
  5
5A
330
51
100
AcDbEntity
  8
SIGN
100
AcDbVertex
100
AcDb2dVertex
 10
0.7162181259060149
 20
-1.050134005813855
 30
0.0
  0
VERTEX
  5
5B
330
51
100
AcDbEntity
  8
SIGN
100
AcDbVertex
100
AcDb2dVertex
 10
0.7999856226298646
 20
-1.086238606499274
 30
0.0
  0
VERTEX
  5
5C
330
51
100
AcDbEntity
  8
SIGN
100
AcDbVertex
100
AcDb2dVertex
 10
0.8245147024848435
 20
-0.9155685761599966
 30
0.0
  0
VERTEX
  5
5D
330
51
100
AcDbEntity
  8
SIGN
100
AcDbVertex
100
AcDb2dVertex
 10
0.5947957355283844
 20
-1.027155218927239
 30
0.0
  0
VERTEX
  5
5E
330
51
100
AcDbEntity
  8
SIGN
100
AcDbVertex
100
AcDb2dVertex
 10
0.7326340058932304
 20
-0.4823994953221084
 30
0.0
  0
SEQEND
  5
5F
330
51
100
AcDbEntity
  8
SIGN
  0
INSERT
  5
60
330
1F
100
AcDbEntity
  8
SIGN
 62
   250
100
AcDbBlockReference
  2
*U2
 10
0.0
 20
0.0
 30
0.0
1001
ACAD
1002
{
1000
R14_HATCH_DATA
1000
60
1011
1.0
1021
0.0
1031
0.0
1011
0.0
1021
1.0
1031
0.0
1011
0.0
1021
0.0
1031
1.0
1040
0.0
1010
0.0
1020
0.0
1030
1.0
1000
SOLID
1070
     1
1070
     1
1071
        1
1071
        1
1071
       12
1070
     1
1040
0.7326340058932304
1040
-0.4823994953221084
1040
0.8000028481072909
1040
-0.5381928167057295
1070
     1
1040
0.8000028481072909
1040
-0.5381928167057295
1040
0.8901437714788529
1040
-0.5381928167057295
1070
     1
1040
0.8901437714788529
1040
-0.5381928167057295
1040
0.7523227265914332
1040
-0.8269607202793708
1070
     1
1040
0.7523227265914332
1040
-0.8269607202793708
1040
0.9623529728496895
1040
-0.7285343422657831
1070
     1
1040
0.9623529728496895
1040
-0.7285343422657831
1040
0.883580864579452
1040
-1.109182942431038
1070
     1
1040
0.883580864579452
1040
-1.109182942431038
1040
0.9787516273594787
1040
-1.10591010172005
1070
     1
1040
0.9787516273594787
1040
-1.10591010172005
1040
0.8000028481072909
1040
-1.296251627280104
1070
     1
1040
0.8000028481072909
1040
-1.296251627280104
1040
0.7162181259060149
1040
-1.050134005813855
1070
     1
1040
0.7162181259060149
1040
-1.050134005813855
1040
0.7999856226298646
1040
-1.086238606499274
1070
     1
1040
0.7999856226298646
1040
-1.086238606499274
1040
0.8245147024848435
1040
-0.9155685761599966
1070
     1
1040
0.8245147024848435
1040
-0.9155685761599966
1040
0.5947957355283844
1040
-1.027155218927239
1070
     1
1040
0.5947957355283844
1040
-1.027155218927239
1040
0.7326340058932304
1040
-0.4823994953221085
1071
        0
1070
     2
1070
     1
1071
        0
1002
}
  0
ENDSEC
  0
SECTION
  2
OBJECTS
  0
DICTIONARY
  5
C
330
0
100
AcDbDictionary
  3
ACAD_GROUP
350
D
  3
ACAD_IMAGE_DICT
350
3C
  3
ACAD_IMAGE_VARS
350
3E
  3
ACAD_LAYOUT
350
1A
  3
ACAD_MLINESTYLE
350
17
  3
ACAD_PLOTSETTINGS
350
19
  3
ACAD_TABLESTYLE
350
61
  3
ACAD_VISUALSTYLE
350
2A
1001
ACAD
1000
TREAT_AS_HARD
1070
     0
  0
IMAGEDEF_REACTOR
  5
40
330
3F
100
AcDbRasterImageDefReactor
 90
        2
330
3F
  0
DICTIONARY
  5
D
102
{ACAD_REACTORS
330
C
102
}
330
C
100
AcDbDictionary
1001
ACAD
1000
TREAT_AS_HARD
1070
     0
  0
DICTIONARY
  5
3C
102
{ACAD_REACTORS
330
C
102
}
330
C
100
AcDbDictionary
  3
C:\USERS\BERTRAND\PICTURES
350
3D
1001
ACAD
1000
TREAT_AS_HARD
1070
     0
  0
RASTERVARIABLES
  5
3E
102
{ACAD_REACTORS
330
C
102
}
330
C
100
AcDbRasterVariables
 90
        0
 70
     0
 71
     1
 72
     0
  0
DICTIONARY
  5
1A
102
{ACAD_REACTORS
330
C
102
}
330
C
100
AcDbDictionary
1001
ACAD
1000
TREAT_AS_HARD
1070
     0
  0
DICTIONARY
  5
17
102
{ACAD_REACTORS
330
C
102
}
330
C
100
AcDbDictionary
  3
STANDARD
350
18
1001
ACAD
1000
TREAT_AS_HARD
1070
     0
  0
DICTIONARY
  5
19
102
{ACAD_REACTORS
330
C
102
}
330
C
100
AcDbDictionary
1001
ACAD
1000
TREAT_AS_HARD
1070
     0
  0
DICTIONARY
  5
61
102
{ACAD_REACTORS
330
C
102
}
330
C
100
AcDbDictionary
1001
ACAD
1000
TREAT_AS_HARD
1070
     0
  0
DICTIONARY
  5
2A
102
{ACAD_REACTORS
330
C
102
}
330
C
100
AcDbDictionary
  3
2DWIREFRAME
350
2F
  3
3D_HIDDEN
350
31
  3
3DWIREFRAME
350
30
  3
BASIC
350
32
  3
BRIGHTEN
350
36
  3
COLORCHANGE
350
3A
  3
CONCEPTUAL
350
34
  3
DIM
350
35
  3
FACEPATTERN
350
39
  3
FLAT
350
2B
  3
FLATWITHEDGES
350
2C
  3
GOURAUD
350
2D
  3
GOURAUDWITHEDGES
350
2E
  3
LINEPATTERN
350
38
  3
REALISTIC
350
33
  3
THICKEN
350
37
1001
ACAD
1000
TREAT_AS_HARD
1070
     0
  0
IMAGEDEF
  5
3D
102
{ACAD_REACTORS
330
3C
330
40
102
}
330
3C
100
AcDbRasterImageDef
 90
        0
  1
C:\Users\Bertrand\Pictures\nwazet\Shock_1.png
 10
134.0
 20
125.0
 11
0.3527777777777777
 21
0.3527777777777777
280
     1
281
     5
  0
MLINESTYLE
  5
18
102
{ACAD_REACTORS
330
17
102
}
330
17
100
AcDbMlineStyle
  2
Standard
 70
     0
  3

 62
   256
 51
90.0
 52
90.0
 71
     2
 49
0.5
 62
   256
  6
BYLAYER
 49
-0.5
 62
   256
  6
BYLAYER
  0
VISUALSTYLE
  5
2F
102
{ACAD_REACTORS
330
2A
102
}
330
2A
100
AcDbVisualStyle
  2
2dWireframe
 70
     4
 71
     0
 72
     2
 73
     0
 90
        0
 40
-0.6
 41
-30.0
 62
     5
 63
     7
 74
     1
 91
        4
 64
     7
 65
   257
 75
     1
175
     1
 42
1.0
 92
        0
 66
   257
 43
1.0
 76
     1
 77
     6
 78
     2
 67
     7
 79
     5
170
     0
171
     0
290
     0
174
     0
 93
        1
 44
0.0
173
     0
291
     0
 45
0.0
1001
ACAD
1000
AcDbSavedByObjectVersion
1070
     0
  0
VISUALSTYLE
  5
31
102
{ACAD_REACTORS
330
2A
102
}
330
2A
100
AcDbVisualStyle
  2
3D Hidden
 70
     6
 71
     1
 72
     2
 73
     2
 90
        0
 40
-0.6
 41
-30.0
 62
     5
 63
     7
 74
     2
 91
        2
 64
     7
 65
   257
 75
     2
175
     1
 42
40.0
 92
        0
 66
   257
 43
1.0
 76
     1
 77
     6
 78
     2
 67
     7
 79
     3
170
     0
171
     0
290
     0
174
     0
 93
        1
 44
0.0
173
     0
291
     0
 45
0.0
1001
ACAD
1000
AcDbSavedByObjectVersion
1070
     0
  0
VISUALSTYLE
  5
30
102
{ACAD_REACTORS
330
2A
102
}
330
2A
100
AcDbVisualStyle
  2
3dWireframe
 70
     5
 71
     0
 72
     2
 73
     0
 90
        0
 40
-0.6
 41
-30.0
 62
     5
 63
     7
 74
     1
 91
        4
 64
     7
 65
   257
 75
     1
175
     1
 42
1.0
 92
        0
 66
   257
 43
1.0
 76
     1
 77
     6
 78
     2
 67
     7
 79
     5
170
     0
171
     0
290
     0
174
     0
 93
        1
 44
0.0
173
     0
291
     0
 45
0.0
1001
ACAD
1000
AcDbSavedByObjectVersion
1070
     0
  0
VISUALSTYLE
  5
32
102
{ACAD_REACTORS
330
2A
102
}
330
2A
100
AcDbVisualStyle
  2
Basic
 70
     7
 71
     1
 72
     0
 73
     1
 90
        0
 40
-0.6
 41
-30.0
 62
     5
 63
     7
 74
     0
 91
        4
 64
     7
 65
   257
 75
     1
175
     1
 42
1.0
 92
        8
 66
     7
 43
1.0
 76
     1
 77
     6
 78
     2
 67
     7
 79
     5
170
     0
171
     0
290
     0
174
     0
 93
        1
 44
0.0
173
     0
291
     1
 45
0.0
1001
ACAD
1000
AcDbSavedByObjectVersion
1070
     0
  0
VISUALSTYLE
  5
36
102
{ACAD_REACTORS
330
2A
102
}
330
2A
100
AcDbVisualStyle
  2
Brighten
 70
    12
 71
     2
 72
     2
 73
     0
 90
        0
 40
-0.6
 41
-30.0
 62
     5
 63
     7
 74
     1
 91
        4
 64
     7
 65
   257
 75
     1
175
     1
 42
1.0
 92
        8
 66
     7
 43
1.0
 76
     1
 77
     6
 78
     2
 67
     7
 79
     5
170
     0
171
     0
290
     0
174
     0
 93
        1
 44
50.0
173
     0
291
     1
 45
0.0
1001
ACAD
1000
AcDbSavedByObjectVersion
1070
     0
  0
VISUALSTYLE
  5
3A
102
{ACAD_REACTORS
330
2A
102
}
330
2A
100
AcDbVisualStyle
  2
ColorChange
 70
    16
 71
     2
 72
     2
 73
     3
 90
        0
 40
-0.6
 41
-30.0
 62
     5
 63
     8
 74
     1
 91
        4
 64
     7
 65
   257
 75
     1
175
     1
 42
1.0
 92
        8
 66
     8
 43
1.0
 76
     1
 77
     6
 78
     2
 67
     7
 79
     5
170
     0
171
     0
290
     0
174
     0
 93
        1
 44
0.0
173
     0
291
     1
 45
0.0
1001
ACAD
1000
AcDbSavedByObjectVersion
1070
     0
  0
VISUALSTYLE
  5
34
102
{ACAD_REACTORS
330
2A
102
}
330
2A
100
AcDbVisualStyle
  2
Conceptual
 70
     9
 71
     3
 72
     2
 73
     0
 90
        0
 40
-0.6
 41
-30.0
 62
     5
 63
     7
 74
     2
 91
        2
 64
     7
 65
   257
 75
     1
175
     1
 42
40.0
 92
        8
 66
     7
 43
1.0
 76
     1
 77
     6
 78
     2
 67
     7
 79
     3
170
     0
171
     0
290
     0
174
     0
 93
        1
 44
0.0
173
     0
291
     0
 45
0.0
1001
ACAD
1000
AcDbSavedByObjectVersion
1070
     0
  0
VISUALSTYLE
  5
35
102
{ACAD_REACTORS
330
2A
102
}
330
2A
100
AcDbVisualStyle
  2
Dim
 70
    11
 71
     2
 72
     2
 73
     0
 90
        0
 40
-0.6
 41
-30.0
 62
     5
 63
     7
 74
     1
 91
        4
 64
     7
 65
   257
 75
     1
175
     1
 42
1.0
 92
        8
 66
     7
 43
1.0
 76
     1
 77
     6
 78
     2
 67
     7
 79
     5
170
     0
171
     0
290
     0
174
     0
 93
        1
 44
-50.0
173
     0
291
     1
 45
0.0
1001
ACAD
1000
AcDbSavedByObjectVersion
1070
     0
  0
VISUALSTYLE
  5
39
102
{ACAD_REACTORS
330
2A
102
}
330
2A
100
AcDbVisualStyle
  2
Facepattern
 70
    15
 71
     2
 72
     2
 73
     0
 90
        0
 40
-0.6
 41
-30.0
 62
     5
 63
     7
 74
     1
 91
        4
 64
     7
 65
   257
 75
     1
175
     1
 42
1.0
 92
        8
 66
     7
 43
1.0
 76
     1
 77
     6
 78
     2
 67
     7
 79
     5
170
     0
171
     0
290
     0
174
     0
 93
        1
 44
0.0
173
     0
291
     1
 45
0.0
1001
ACAD
1000
AcDbSavedByObjectVersion
1070
     0
  0
VISUALSTYLE
  5
2B
102
{ACAD_REACTORS
330
2A
102
}
330
2A
100
AcDbVisualStyle
  2
Flat
 70
     0
 71
     2
 72
     1
 73
     1
 90
        2
 40
-0.6
 41
30.0
 62
     5
 63
     7
 74
     0
 91
        4
 64
     7
 65
   257
 75
     1
175
     1
 42
1.0
 92
        8
 66
     7
 43
1.0
 76
     1
 77
     6
 78
     2
 67
     7
 79
     5
170
     0
171
     0
290
     0
174
     0
 93
       13
 44
0.0
173
     0
291
     1
 45
0.0
1001
ACAD
1000
AcDbSavedByObjectVersion
1070
     0
  0
VISUALSTYLE
  5
2C
102
{ACAD_REACTORS
330
2A
102
}
330
2A
100
AcDbVisualStyle
  2
FlatWithEdges
 70
     1
 71
     2
 72
     1
 73
     1
 90
        2
 40
-0.6
 41
30.0
 62
     5
 63
     7
 74
     1
 91
        4
 64
     7
 65
   257
 75
     1
175
     1
 42
1.0
 92
        0
 66
   257
 43
1.0
 76
     1
 77
     6
 78
     2
 67
     7
 79
     5
170
     0
171
     0
290
     0
174
     0
 93
       13
 44
0.0
173
     0
291
     1
 45
0.0
1001
ACAD
1000
AcDbSavedByObjectVersion
1070
     0
  0
VISUALSTYLE
  5
2D
102
{ACAD_REACTORS
330
2A
102
}
330
2A
100
AcDbVisualStyle
  2
Gouraud
 70
     2
 71
     2
 72
     2
 73
     1
 90
        2
 40
-0.6
 41
30.0
 62
     5
 63
     7
 74
     0
 91
        4
 64
     7
 65
   257
 75
     1
175
     1
 42
1.0
 92
        0
 66
     7
 43
1.0
 76
     1
 77
     6
 78
     2
 67
     7
 79
     5
170
     0
171
     0
290
     0
174
     0
 93
       13
 44
0.0
173
     0
291
     1
 45
0.0
1001
ACAD
1000
AcDbSavedByObjectVersion
1070
     0
  0
VISUALSTYLE
  5
2E
102
{ACAD_REACTORS
330
2A
102
}
330
2A
100
AcDbVisualStyle
  2
GouraudWithEdges
 70
     3
 71
     2
 72
     2
 73
     1
 90
        2
 40
-0.6
 41
30.0
 62
     5
 63
     7
 74
     1
 91
        4
 64
     7
 65
   257
 75
     1
175
     1
 42
1.0
 92
        0
 66
   257
 43
1.0
 76
     1
 77
     6
 78
     2
 67
     7
 79
     5
170
     0
171
     0
290
     0
174
     0
 93
       13
 44
0.0
173
     0
291
     1
 45
0.0
1001
ACAD
1000
AcDbSavedByObjectVersion
1070
     0
  0
VISUALSTYLE
  5
38
102
{ACAD_REACTORS
330
2A
102
}
330
2A
100
AcDbVisualStyle
  2
Linepattern
 70
    14
 71
     2
 72
     2
 73
     0
 90
        0
 40
-0.6
 41
-30.0
 62
     5
 63
     7
 74
     1
 91
        4
 64
     7
 65
   257
 75
     7
175
     7
 42
1.0
 92
        8
 66
     7
 43
1.0
 76
     1
 77
     6
 78
     2
 67
     7
 79
     5
170
     0
171
     0
290
     0
174
     0
 93
        1
 44
0.0
173
     0
291
     1
 45
0.0
1001
ACAD
1000
AcDbSavedByObjectVersion
1070
     0
  0
VISUALSTYLE
  5
33
102
{ACAD_REACTORS
330
2A
102
}
330
2A
100
AcDbVisualStyle
  2
Realistic
 70
     8
 71
     2
 72
     2
 73
     0
 90
        0
 40
-0.6
 41
-30.0
 62
     5
 63
     7
 74
     1
 91
        0
 64
     7
 65
   257
 75
     1
175
     1
 42
1.0
 92
        8
 66
     8
 43
1.0
 76
     1
 77
     6
 78
     2
 67
     7
 79
     5
170
     0
171
     0
290
     0
174
     0
 93
       13
 44
0.0
173
     0
291
     0
 45
0.0
1001
ACAD
1000
AcDbSavedByObjectVersion
1070
     0
  0
VISUALSTYLE
  5
37
102
{ACAD_REACTORS
330
2A
102
}
330
2A
100
AcDbVisualStyle
  2
Thicken
 70
    13
 71
     2
 72
     2
 73
     0
 90
        0
 40
-0.6
 41
-30.0
 62
     5
 63
     7
 74
     1
 91
        4
 64
     7
 65
   257
 75
     1
175
     1
 42
1.0
 92
       12
 66
     7
 43
1.0
 76
     1
 77
     6
 78
     2
 67
     7
 79
     5
170
     0
171
     0
290
     0
174
     0
 93
        1
 44
0.0
173
     0
291
     1
 45
0.0
1001
ACAD
1000
AcDbSavedByObjectVersion
1070
     0
  0
ENDSEC
  0
EOF
